<svg width="83" height="83" viewBox="0 0 83 83" fill="none" xmlns="http://www.w3.org/2000/svg">
<mask id="mask0" mask-type="alpha" maskUnits="userSpaceOnUse" x="0" y="0" width="83" height="83">
<path d="M41.25 69.0917L61.2563 81.7516C64.9173 84.0722 69.4033 80.6429 68.439 76.3061L63.1358 52.4946L80.827 36.4544C84.0574 33.5279 82.3223 27.9792 78.0787 27.626L54.7981 25.5581L45.6844 3.059C45.3426 2.15953 44.7355 1.38526 43.9435 0.838922C43.1515 0.292581 42.2121 0 41.25 0C40.2879 0 39.3485 0.292581 38.5565 0.838922C37.7645 1.38526 37.1574 2.15953 36.8156 3.059L27.7045 25.5065L4.42131 27.5744C0.177695 27.9276 -1.55739 33.4789 1.67301 36.4028L19.3642 52.4456L14.061 76.2545C13.0967 80.5939 17.5827 84.0232 21.2437 81.7027L41.25 69.0917Z" fill="#FED545"/>
</mask>
<g mask="url(#mask0)">
<rect y="-22" width="33" height="110" fill="#FED545"/>
<rect x="33" y="-22" width="51" height="110" fill="#E5E5E5"/>
</g>
</svg>
