<svg width="83" height="83" viewBox="0 0 83 83" fill="none" xmlns="http://www.w3.org/2000/svg">
<mask id="mask0" mask-type="alpha" maskUnits="userSpaceOnUse" x="0" y="0" width="83" height="83">
<path d="M41.25 69.0918L61.2563 81.7517C64.9173 84.0723 69.4033 80.643 68.439 76.3061L63.1358 52.4946L80.827 36.4544C84.0574 33.528 82.3223 27.9793 78.0787 27.626L54.7981 25.5581L45.6844 3.05906C45.3426 2.15959 44.7355 1.38532 43.9435 0.838983C43.1515 0.292642 42.2121 6.10352e-05 41.25 6.10352e-05C40.2879 6.10352e-05 39.3485 0.292642 38.5565 0.838983C37.7645 1.38532 37.1574 2.15959 36.8156 3.05906L27.7045 25.5066L4.42131 27.5744C0.177695 27.9277 -1.55739 33.479 1.67301 36.4029L19.3642 52.4457L14.061 76.2546C13.0967 80.594 17.5827 84.0233 21.2437 81.7027L41.25 69.0918Z" fill="#E5E5E5"/>
</mask>
<g mask="url(#mask0)">
<rect x="-6" y="-4.74829" width="48" height="117" fill="#FED545"/>
<rect x="42" y="-4.74829" width="52" height="117" fill="#E5E5E5"/>
</g>
</svg>
